<svg fill="#b7b7b7" height="47" viewBox="0 0 353 94" width="176" xmlns="http://www.w3.org/2000/svg"><path d="m117.1 21-4.9-1.7v-.8l10.4-3.6h.9v24.2c3.4-3.7 7.5-6.8 13-6.8 6.6 0 9.6 4 9.6 11.7v20.6c0 2.8 1.2 3.3 4.9 3.6v1.8h-16.2v-1.8c3.7-.3 4.9-.8 4.9-3.6v-20.6c0-5.3-2.2-7.5-6.3-7.5-3.6 0-7.1 1.9-9.8 4.4v23.8c0 2.8 1.2 3.3 4.9 3.6v1.8h-16.3v-1.9c3.7-.3 4.9-.8 4.9-3.6z"/><path d="m182.1 46.5v1.5h-23.7c-.5 11.6 5.1 18 12.6 18 5.1 0 8.2-2.4 10.7-6.3l.9.4c-1.5 6.4-7.4 10.9-14 10.7-10.2 0-15.8-8.2-15.8-18.2 0-11.7 6.8-20.3 15.9-20.3 8.7.1 13.4 6.2 13.4 14.2zm-23.4-.6h17.3c0-6.4-2.2-11.2-7.7-11.2s-9 4.8-9.6 11.2z"/><path d="m233.3 44c0-5.2-1.8-7.5-5.9-7.5-3.6 0-6.6 1.9-9.3 4.4v23.8c0 2.8 1.1 3.3 4.9 3.6v1.8h-16.2v-1.9c3.7-.3 4.9-.8 4.9-3.6v-20.6c0-5.2-1.8-7.5-5.9-7.5-3.6 0-6.6 1.9-9.3 4.4v23.8c0 2.8 1.2 3.3 4.9 3.6v1.8h-16.2v-1.9c3.7-.3 4.9-.8 4.9-3.6v-26.2l-4.9-1.7v-.8l10.4-3.6h.9v6.8c3.3-3.7 6.9-6.8 12.5-6.8 5 0 7.7 2.3 8.6 7 3.4-3.7 7.3-7 13-7 6.4 0 9.1 4 9.1 11.7v20.6c0 2.8 1.2 3.3 4.9 3.6v1.8h-16.2v-1.8c3.7-.3 4.9-.8 4.9-3.6z"/><path d="m258.4 64.7c0 2.8 1.7 3.3 6.3 3.6v1.8h-17.6v-1.9c3.7-.3 4.9-.8 4.9-3.6v-28.8h-5.3v-1l5.3-2.2v-4.3c0-8.8 4.9-13.5 12.6-13.5 4.9 0 7.5 1.8 7.5 5.2 0 1.7-1.5 4.5-5.8 3.9.2-.9.3-1.8.3-2.7 0-2.7-.9-4.5-3.5-4.5-3 0-4.6 2.7-4.6 7.8v8.7h8.5v2.7h-8.5z"/><path d="m281.7 64.7c0 2.8 1.7 3.3 6.3 3.6v1.8h-17.6v-1.9c3.7-.3 4.9-.8 4.9-3.6v-26.2l-4.9-1.7v-.8l10.4-3.6h.9v10.2c3.9-7.2 5.7-10.2 9.7-10.2 1 0 2 .4 2.7 1.2v5.3h-1c-4.4 0-7.3.4-11.3 5.1z"/><path d="m308.6 64.7c0 2.8 1.2 3.3 4.9 3.6v1.8h-16.2v-1.9c3.7-.3 4.9-.8 4.9-3.6v-26.2l-4.9-1.7v-.8l10.4-3.6h.9zm-8.1-42c0-2.5 2-4.5 4.5-4.6 2.5 0 4.5 2 4.6 4.5s-2 4.5-4.5 4.6c-2.4.1-4.5-1.8-4.5-4.3-.1-.1-.1-.2-.1-.2z"/><path d="m336.6 19.3v-.8l10.4-3.6h.9v48.3c0 2.4.1 3 3.3 3.2l1.8.3v1.5l-10.5 2.6h-1v-6.6c-2.8 3.7-6.3 6.6-11.3 6.6-8.9 0-14.3-7.5-14.3-17.4 0-13 7.5-21 17.4-21 3-.1 6 .9 8.4 2.8v-14.2zm-14.6 31.3c0 8.6 3.8 15.5 11.4 15.5 3.1.1 6.1-1.1 8.2-3.5v-17.8c0-6.4-3.5-10.4-8.4-10.4-6.9 0-11.2 6.4-11.2 16.2z"/><path d="m47.3 94.7c-26.1 0-47.3-21.2-47.3-47.4s21.2-47.3 47.3-47.3 47.4 21.2 47.4 47.4c0 26.1-21.2 47.3-47.4 47.3zm0-91.9c-24.5 0-44.5 20-44.5 44.6s19.9 44.5 44.5 44.5 44.6-19.9 44.6-44.5-20-44.6-44.6-44.6z"/><path d="m67.9 75.5h-18.5v-14.8l.9-.4c3.2-1.2 5.3-4.3 5.4-7.7-.2-4.6-4-8.2-8.7-8.1-4.4.2-7.9 3.7-8.1 8.1 0 3.5 2.2 6.5 5.4 7.7l.9.4v14.7h-18.4c-5 0-9.1-4.1-9.1-9.1v-26.4c0-2.4.9-4.8 2.7-6.4l20.6-20.6c1.7-1.7 4-2.7 6.4-2.7s4.8.9 6.4 2.7l20.6 20.6c1.7 1.7 2.7 4 2.7 6.4v26.4c.1 5-3.9 9.2-9 9.3 0-.1-.1-.1-.2-.1zm-15.7-2.8h15.7c3.5 0 6.3-2.8 6.3-6.3v-26.5c0-1.7-.7-3.3-1.8-4.5l-20.5-20.6c-1.3-1.2-2.9-1.8-4.6-1.8s-3.3.7-4.5 1.8l-20.5 20.6c-1.2 1.2-1.8 2.8-1.8 4.5v26.4c0 3.5 2.8 6.3 6.3 6.3h15.8v-9.9c-5.5-2.7-7.8-9.4-5.1-15 2.7-5.5 9.4-7.8 15-5.1 3.9 1.9 6.3 5.8 6.3 10.1s-2.5 8.1-6.3 10v10z"/></svg>